<mxfile host="65bd71144e">
    <diagram id="5tWDuhk71gJcdudSTzt3" name="Airline1">
        <mxGraphModel dx="538" dy="777" grid="0" gridSize="10" guides="0" tooltips="1" connect="1" arrows="1" fold="1" page="1" pageScale="1" pageWidth="850" pageHeight="1100" math="0" shadow="0">
            <root>
                <mxCell id="0"/>
                <mxCell id="1" parent="0"/>
                <mxCell id="3" value="Airline1&lt;br&gt;Schedule" style="whiteSpace=wrap;html=1;align=center;" parent="1" vertex="1">
                    <mxGeometry x="153" y="182" width="100" height="40" as="geometry"/>
                </mxCell>
                <mxCell id="16" value="&lt;u&gt;Flight&lt;br&gt;Id&lt;/u&gt;" style="ellipse;whiteSpace=wrap;html=1;align=center;" parent="1" vertex="1">
                    <mxGeometry x="5" y="179" width="80" height="40" as="geometry"/>
                </mxCell>
                <mxCell id="17" value="Flight&lt;br&gt;Number" style="ellipse;whiteSpace=wrap;html=1;align=center;" parent="1" vertex="1">
                    <mxGeometry x="23" y="133" width="80" height="40" as="geometry"/>
                </mxCell>
                <mxCell id="18" value="Start&lt;br&gt;Date" style="ellipse;whiteSpace=wrap;html=1;align=center;" parent="1" vertex="1">
                    <mxGeometry x="61" y="92" width="80" height="40" as="geometry"/>
                </mxCell>
                <mxCell id="19" value="End&lt;br&gt;Date" style="ellipse;whiteSpace=wrap;html=1;align=center;" parent="1" vertex="1">
                    <mxGeometry x="125" y="62" width="80" height="40" as="geometry"/>
                </mxCell>
                <mxCell id="20" value="Arrival &lt;br&gt;Time" style="ellipse;whiteSpace=wrap;html=1;align=center;" parent="1" vertex="1">
                    <mxGeometry x="313" y="180" width="80" height="40" as="geometry"/>
                </mxCell>
                <mxCell id="21" value="Departure&lt;br&gt;Airport" style="ellipse;whiteSpace=wrap;html=1;align=center;" parent="1" vertex="1">
                    <mxGeometry x="210" y="62" width="80" height="40" as="geometry"/>
                </mxCell>
                <mxCell id="23" value="Arrival&amp;nbsp;&lt;br&gt;Airport" style="ellipse;whiteSpace=wrap;html=1;align=center;" parent="1" vertex="1">
                    <mxGeometry x="304" y="135" width="80" height="40" as="geometry"/>
                </mxCell>
                <mxCell id="24" value="Departure&lt;br&gt;Time" style="ellipse;whiteSpace=wrap;html=1;align=center;" parent="1" vertex="1">
                    <mxGeometry x="274" y="93" width="80" height="40" as="geometry"/>
                </mxCell>
                <mxCell id="26" value="Departure&lt;br&gt;Gate" style="ellipse;whiteSpace=wrap;html=1;align=center;" parent="1" vertex="1">
                    <mxGeometry x="480" y="132.00000000000003" width="80" height="40" as="geometry"/>
                </mxCell>
                <mxCell id="28" value="Departure&lt;br&gt;Time" style="ellipse;whiteSpace=wrap;html=1;align=center;" parent="1" vertex="1">
                    <mxGeometry x="524" y="90.00000000000003" width="80" height="40" as="geometry"/>
                </mxCell>
                <mxCell id="29" value="&lt;u&gt;Departure&lt;br&gt;Date&lt;/u&gt;" style="ellipse;whiteSpace=wrap;html=1;align=center;" parent="1" vertex="1">
                    <mxGeometry x="446" y="176" width="80" height="40" as="geometry"/>
                </mxCell>
                <mxCell id="30" value="Arrival&lt;br&gt;Date" style="ellipse;whiteSpace=wrap;html=1;align=center;" parent="1" vertex="1">
                    <mxGeometry x="668" y="91.00000000000003" width="79" height="40" as="geometry"/>
                </mxCell>
                <mxCell id="31" value="Arrival&lt;br&gt;Time" style="ellipse;whiteSpace=wrap;html=1;align=center;" parent="1" vertex="1">
                    <mxGeometry x="722" y="132" width="80" height="40" as="geometry"/>
                </mxCell>
                <mxCell id="32" value="Arrival&lt;br&gt;Gate" style="ellipse;whiteSpace=wrap;html=1;align=center;" parent="1" vertex="1">
                    <mxGeometry x="593" y="61.00000000000003" width="80" height="40" as="geometry"/>
                </mxCell>
                <mxCell id="33" value="PlaneId" style="ellipse;whiteSpace=wrap;html=1;align=center;" parent="1" vertex="1">
                    <mxGeometry x="737" y="181" width="78" height="40" as="geometry"/>
                </mxCell>
                <mxCell id="89" value="" style="endArrow=none;html=1;rounded=0;entryX=0;entryY=0.5;entryDx=0;entryDy=0;exitX=1;exitY=0.5;exitDx=0;exitDy=0;entryPerimeter=0;" parent="1" source="16" target="3" edge="1">
                    <mxGeometry relative="1" as="geometry">
                        <mxPoint x="19" y="112" as="sourcePoint"/>
                        <mxPoint x="139" y="182" as="targetPoint"/>
                    </mxGeometry>
                </mxCell>
                <mxCell id="91" value="" style="endArrow=none;html=1;rounded=0;entryX=0;entryY=0.25;entryDx=0;entryDy=0;exitX=1;exitY=1;exitDx=0;exitDy=0;" parent="1" source="17" target="3" edge="1">
                    <mxGeometry relative="1" as="geometry">
                        <mxPoint x="69" y="142" as="sourcePoint"/>
                        <mxPoint x="229" y="142" as="targetPoint"/>
                    </mxGeometry>
                </mxCell>
                <mxCell id="92" value="" style="endArrow=none;html=1;rounded=0;exitX=0.713;exitY=0.953;exitDx=0;exitDy=0;entryX=0;entryY=0;entryDx=0;entryDy=0;exitPerimeter=0;" parent="1" source="18" target="3" edge="1">
                    <mxGeometry relative="1" as="geometry">
                        <mxPoint x="129" y="152" as="sourcePoint"/>
                        <mxPoint x="289" y="152" as="targetPoint"/>
                    </mxGeometry>
                </mxCell>
                <mxCell id="93" value="" style="endArrow=none;html=1;rounded=0;entryX=0.5;entryY=1;entryDx=0;entryDy=0;" parent="1" target="19" edge="1">
                    <mxGeometry relative="1" as="geometry">
                        <mxPoint x="179" y="182" as="sourcePoint"/>
                        <mxPoint x="329" y="152" as="targetPoint"/>
                    </mxGeometry>
                </mxCell>
                <mxCell id="95" value="" style="endArrow=none;html=1;rounded=0;exitX=0.75;exitY=0;exitDx=0;exitDy=0;entryX=0.5;entryY=1;entryDx=0;entryDy=0;" parent="1" source="3" target="21" edge="1">
                    <mxGeometry relative="1" as="geometry">
                        <mxPoint x="189" y="132" as="sourcePoint"/>
                        <mxPoint x="349" y="132" as="targetPoint"/>
                    </mxGeometry>
                </mxCell>
                <mxCell id="96" value="" style="endArrow=none;html=1;rounded=0;exitX=1;exitY=0;exitDx=0;exitDy=0;entryX=0;entryY=1;entryDx=0;entryDy=0;" parent="1" source="3" target="24" edge="1">
                    <mxGeometry relative="1" as="geometry">
                        <mxPoint x="219" y="162" as="sourcePoint"/>
                        <mxPoint x="379" y="162" as="targetPoint"/>
                    </mxGeometry>
                </mxCell>
                <mxCell id="97" value="" style="endArrow=none;html=1;rounded=0;exitX=1;exitY=0.25;exitDx=0;exitDy=0;entryX=0;entryY=0.5;entryDx=0;entryDy=0;" parent="1" source="3" target="23" edge="1">
                    <mxGeometry relative="1" as="geometry">
                        <mxPoint x="279" y="202" as="sourcePoint"/>
                        <mxPoint x="439" y="202" as="targetPoint"/>
                    </mxGeometry>
                </mxCell>
                <mxCell id="98" value="" style="endArrow=none;html=1;rounded=0;exitX=1;exitY=0.5;exitDx=0;exitDy=0;entryX=0;entryY=0.5;entryDx=0;entryDy=0;" parent="1" source="3" target="20" edge="1">
                    <mxGeometry relative="1" as="geometry">
                        <mxPoint x="239" y="222" as="sourcePoint"/>
                        <mxPoint x="399" y="222" as="targetPoint"/>
                    </mxGeometry>
                </mxCell>
                <mxCell id="MfCWQCCmRww1903B2JPK-103" value="" style="endArrow=none;html=1;rounded=0;exitX=1;exitY=0.5;exitDx=0;exitDy=0;entryX=0;entryY=0.5;entryDx=0;entryDy=0;" parent="1" target="33" edge="1">
                    <mxGeometry relative="1" as="geometry">
                        <mxPoint x="684" y="202.09" as="sourcePoint"/>
                        <mxPoint x="870" y="182.09" as="targetPoint"/>
                    </mxGeometry>
                </mxCell>
                <mxCell id="MfCWQCCmRww1903B2JPK-104" value="" style="endArrow=none;html=1;rounded=0;exitX=1;exitY=0.25;exitDx=0;exitDy=0;entryX=0;entryY=1;entryDx=0;entryDy=0;" parent="1" source="MfCWQCCmRww1903B2JPK-113" target="31" edge="1">
                    <mxGeometry relative="1" as="geometry">
                        <mxPoint x="684" y="212.09" as="sourcePoint"/>
                        <mxPoint x="850" y="262.09000000000003" as="targetPoint"/>
                    </mxGeometry>
                </mxCell>
                <mxCell id="MfCWQCCmRww1903B2JPK-105" value="" style="endArrow=none;html=1;rounded=0;exitX=1;exitY=0;exitDx=0;exitDy=0;entryX=0.5;entryY=1;entryDx=0;entryDy=0;" parent="1" source="MfCWQCCmRww1903B2JPK-113" target="30" edge="1">
                    <mxGeometry relative="1" as="geometry">
                        <mxPoint x="684" y="222.09" as="sourcePoint"/>
                        <mxPoint x="830" y="292.09000000000003" as="targetPoint"/>
                    </mxGeometry>
                </mxCell>
                <mxCell id="MfCWQCCmRww1903B2JPK-106" value="" style="endArrow=none;html=1;rounded=0;exitX=0.5;exitY=0;exitDx=0;exitDy=0;" parent="1" source="MfCWQCCmRww1903B2JPK-113" target="32" edge="1">
                    <mxGeometry relative="1" as="geometry">
                        <mxPoint x="659" y="222.09" as="sourcePoint"/>
                        <mxPoint x="664" y="108" as="targetPoint"/>
                    </mxGeometry>
                </mxCell>
                <mxCell id="MfCWQCCmRww1903B2JPK-107" value="" style="endArrow=none;html=1;rounded=0;entryX=0.25;entryY=1;entryDx=0;entryDy=0;" parent="1" source="28" edge="1">
                    <mxGeometry relative="1" as="geometry">
                        <mxPoint x="570" y="262.09000000000003" as="sourcePoint"/>
                        <mxPoint x="609" y="222.09" as="targetPoint"/>
                    </mxGeometry>
                </mxCell>
                <mxCell id="MfCWQCCmRww1903B2JPK-108" value="" style="endArrow=none;html=1;rounded=0;exitX=1;exitY=1;exitDx=0;exitDy=0;entryX=0;entryY=0.25;entryDx=0;entryDy=0;" parent="1" source="26" target="MfCWQCCmRww1903B2JPK-113" edge="1">
                    <mxGeometry relative="1" as="geometry">
                        <mxPoint x="550" y="262.09000000000003" as="sourcePoint"/>
                        <mxPoint x="584" y="222.09" as="targetPoint"/>
                    </mxGeometry>
                </mxCell>
                <mxCell id="MfCWQCCmRww1903B2JPK-109" value="" style="endArrow=none;html=1;rounded=0;exitX=1;exitY=0.5;exitDx=0;exitDy=0;entryX=0;entryY=0.5;entryDx=0;entryDy=0;" parent="1" source="29" target="MfCWQCCmRww1903B2JPK-113" edge="1">
                    <mxGeometry relative="1" as="geometry">
                        <mxPoint x="530" y="232.09" as="sourcePoint"/>
                        <mxPoint x="584" y="212.09" as="targetPoint"/>
                    </mxGeometry>
                </mxCell>
                <mxCell id="MfCWQCCmRww1903B2JPK-110" value="has_flight" style="shape=rhombus;double=1;perimeter=rhombusPerimeter;whiteSpace=wrap;html=1;align=center;" parent="1" vertex="1">
                    <mxGeometry x="368" y="253" width="120" height="60" as="geometry"/>
                </mxCell>
                <mxCell id="MfCWQCCmRww1903B2JPK-113" value="Airline1&lt;br&gt;Flight" style="shape=ext;margin=3;double=1;whiteSpace=wrap;html=1;align=center;" parent="1" vertex="1">
                    <mxGeometry x="586" y="179.09" width="100" height="49.91" as="geometry"/>
                </mxCell>
                <mxCell id="MfCWQCCmRww1903B2JPK-116" value="" style="endArrow=none;html=1;rounded=0;exitX=0.5;exitY=1;exitDx=0;exitDy=0;entryX=0;entryY=0.5;entryDx=0;entryDy=0;" parent="1" source="3" target="MfCWQCCmRww1903B2JPK-110" edge="1">
                    <mxGeometry relative="1" as="geometry">
                        <mxPoint x="249" y="272" as="sourcePoint"/>
                        <mxPoint x="409" y="272" as="targetPoint"/>
                    </mxGeometry>
                </mxCell>
                <mxCell id="MfCWQCCmRww1903B2JPK-117" value="1" style="resizable=0;html=1;align=right;verticalAlign=bottom;" parent="MfCWQCCmRww1903B2JPK-116" connectable="0" vertex="1">
                    <mxGeometry x="1" relative="1" as="geometry">
                        <mxPoint x="-91" y="-13" as="offset"/>
                    </mxGeometry>
                </mxCell>
                <mxCell id="YS0_6ZeGlfQ3S4Mm1F2D-101" value="" style="endArrow=none;html=1;rounded=0;exitX=1;exitY=0.5;exitDx=0;exitDy=0;entryX=0.5;entryY=1;entryDx=0;entryDy=0;" parent="1" source="MfCWQCCmRww1903B2JPK-110" target="MfCWQCCmRww1903B2JPK-113" edge="1">
                    <mxGeometry relative="1" as="geometry">
                        <mxPoint x="548" y="316" as="sourcePoint"/>
                        <mxPoint x="708" y="316" as="targetPoint"/>
                    </mxGeometry>
                </mxCell>
                <mxCell id="YS0_6ZeGlfQ3S4Mm1F2D-102" value="N" style="resizable=0;html=1;align=right;verticalAlign=bottom;" parent="YS0_6ZeGlfQ3S4Mm1F2D-101" connectable="0" vertex="1">
                    <mxGeometry x="1" relative="1" as="geometry">
                        <mxPoint x="-61" y="48" as="offset"/>
                    </mxGeometry>
                </mxCell>
            </root>
        </mxGraphModel>
    </diagram>
    <diagram id="1Jpsqdiv_cARaYtw3xOR" name="Airline2">
        <mxGraphModel dx="467" dy="673" grid="0" gridSize="10" guides="1" tooltips="1" connect="1" arrows="1" fold="1" page="1" pageScale="1" pageWidth="850" pageHeight="1100" math="0" shadow="0">
            <root>
                <mxCell id="0"/>
                <mxCell id="1" parent="0"/>
                <mxCell id="4gdHX_DHgAHDUN_a-BL8-1" value="Airline2&lt;br&gt;Flight" style="whiteSpace=wrap;html=1;align=center;" parent="1" vertex="1">
                    <mxGeometry x="280" y="216" width="100" height="44" as="geometry"/>
                </mxCell>
                <mxCell id="4gdHX_DHgAHDUN_a-BL8-2" value="&lt;u&gt;Flight&lt;br&gt;Number&lt;/u&gt;" style="ellipse;whiteSpace=wrap;html=1;align=center;" parent="1" vertex="1">
                    <mxGeometry x="80" y="230" width="80" height="50" as="geometry"/>
                </mxCell>
                <mxCell id="4gdHX_DHgAHDUN_a-BL8-3" value="&lt;u&gt;Departure&lt;br&gt;Airport&lt;/u&gt;" style="ellipse;whiteSpace=wrap;html=1;align=center;" parent="1" vertex="1">
                    <mxGeometry x="95" y="180" width="75" height="46" as="geometry"/>
                </mxCell>
                <mxCell id="4gdHX_DHgAHDUN_a-BL8-4" value="&lt;u&gt;Scheduled&lt;br&gt;Departure&lt;br&gt;Date&lt;/u&gt;" style="ellipse;whiteSpace=wrap;html=1;align=center;" parent="1" vertex="1">
                    <mxGeometry x="135" y="130" width="80" height="50" as="geometry"/>
                </mxCell>
                <mxCell id="4gdHX_DHgAHDUN_a-BL8-5" value="Scheduled&lt;br&gt;Departure&lt;br&gt;Time" style="ellipse;whiteSpace=wrap;html=1;align=center;" parent="1" vertex="1">
                    <mxGeometry x="205" y="95" width="80" height="50" as="geometry"/>
                </mxCell>
                <mxCell id="4gdHX_DHgAHDUN_a-BL8-6" value="Actual&lt;br&gt;Arrival&lt;br&gt;Time" style="ellipse;whiteSpace=wrap;html=1;align=center;" parent="1" vertex="1">
                    <mxGeometry x="500" y="226" width="80" height="50" as="geometry"/>
                </mxCell>
                <mxCell id="4gdHX_DHgAHDUN_a-BL8-7" value="Actual&lt;br&gt;Departure&lt;br&gt;Time" style="ellipse;whiteSpace=wrap;html=1;align=center;" parent="1" vertex="1">
                    <mxGeometry x="285" y="80" width="80" height="50" as="geometry"/>
                </mxCell>
                <mxCell id="4gdHX_DHgAHDUN_a-BL8-8" value="Arrival&lt;br&gt;Airport" style="ellipse;whiteSpace=wrap;html=1;align=center;" parent="1" vertex="1">
                    <mxGeometry x="365" y="90" width="80" height="50" as="geometry"/>
                </mxCell>
                <mxCell id="4gdHX_DHgAHDUN_a-BL8-9" value="Scheduled&lt;br&gt;Arrival&lt;br&gt;Date" style="ellipse;whiteSpace=wrap;html=1;align=center;" parent="1" vertex="1">
                    <mxGeometry x="430" y="124" width="80" height="50" as="geometry"/>
                </mxCell>
                <mxCell id="4gdHX_DHgAHDUN_a-BL8-10" value="Scheduled&lt;br&gt;Arrival&lt;br&gt;Time" style="ellipse;whiteSpace=wrap;html=1;align=center;" parent="1" vertex="1">
                    <mxGeometry x="470" y="174" width="80" height="50" as="geometry"/>
                </mxCell>
                <mxCell id="4gdHX_DHgAHDUN_a-BL8-11" value="" style="endArrow=none;html=1;rounded=0;exitX=1;exitY=0.5;exitDx=0;exitDy=0;entryX=0;entryY=0.75;entryDx=0;entryDy=0;" parent="1" source="4gdHX_DHgAHDUN_a-BL8-2" target="4gdHX_DHgAHDUN_a-BL8-1" edge="1">
                    <mxGeometry relative="1" as="geometry">
                        <mxPoint x="160" y="270" as="sourcePoint"/>
                        <mxPoint x="320" y="270" as="targetPoint"/>
                    </mxGeometry>
                </mxCell>
                <mxCell id="4gdHX_DHgAHDUN_a-BL8-12" value="" style="endArrow=none;html=1;rounded=0;entryX=0;entryY=0.5;entryDx=0;entryDy=0;exitX=1;exitY=1;exitDx=0;exitDy=0;" parent="1" source="4gdHX_DHgAHDUN_a-BL8-3" target="4gdHX_DHgAHDUN_a-BL8-1" edge="1">
                    <mxGeometry relative="1" as="geometry">
                        <mxPoint x="170" y="210" as="sourcePoint"/>
                        <mxPoint x="330" y="210" as="targetPoint"/>
                    </mxGeometry>
                </mxCell>
                <mxCell id="4gdHX_DHgAHDUN_a-BL8-13" value="" style="endArrow=none;html=1;rounded=0;exitX=1;exitY=1;exitDx=0;exitDy=0;entryX=0;entryY=0;entryDx=0;entryDy=0;" parent="1" source="4gdHX_DHgAHDUN_a-BL8-4" target="4gdHX_DHgAHDUN_a-BL8-1" edge="1">
                    <mxGeometry relative="1" as="geometry">
                        <mxPoint x="210" y="210" as="sourcePoint"/>
                        <mxPoint x="370" y="210" as="targetPoint"/>
                    </mxGeometry>
                </mxCell>
                <mxCell id="4gdHX_DHgAHDUN_a-BL8-14" value="" style="endArrow=none;html=1;rounded=0;exitX=0.5;exitY=1;exitDx=0;exitDy=0;entryX=0.25;entryY=0;entryDx=0;entryDy=0;" parent="1" source="4gdHX_DHgAHDUN_a-BL8-5" target="4gdHX_DHgAHDUN_a-BL8-1" edge="1">
                    <mxGeometry relative="1" as="geometry">
                        <mxPoint x="340" y="220" as="sourcePoint"/>
                        <mxPoint x="500" y="220" as="targetPoint"/>
                    </mxGeometry>
                </mxCell>
                <mxCell id="4gdHX_DHgAHDUN_a-BL8-15" value="" style="endArrow=none;html=1;rounded=0;exitX=0.5;exitY=1;exitDx=0;exitDy=0;" parent="1" source="4gdHX_DHgAHDUN_a-BL8-7" target="4gdHX_DHgAHDUN_a-BL8-1" edge="1">
                    <mxGeometry relative="1" as="geometry">
                        <mxPoint x="310" y="200" as="sourcePoint"/>
                        <mxPoint x="470" y="200" as="targetPoint"/>
                    </mxGeometry>
                </mxCell>
                <mxCell id="4gdHX_DHgAHDUN_a-BL8-16" value="" style="endArrow=none;html=1;rounded=0;entryX=0.5;entryY=1;entryDx=0;entryDy=0;exitX=0.75;exitY=0;exitDx=0;exitDy=0;" parent="1" source="4gdHX_DHgAHDUN_a-BL8-1" target="4gdHX_DHgAHDUN_a-BL8-8" edge="1">
                    <mxGeometry relative="1" as="geometry">
                        <mxPoint x="310" y="260" as="sourcePoint"/>
                        <mxPoint x="470" y="260" as="targetPoint"/>
                    </mxGeometry>
                </mxCell>
                <mxCell id="4gdHX_DHgAHDUN_a-BL8-17" value="" style="endArrow=none;html=1;rounded=0;exitX=1;exitY=0;exitDx=0;exitDy=0;entryX=0;entryY=1;entryDx=0;entryDy=0;" parent="1" source="4gdHX_DHgAHDUN_a-BL8-1" target="4gdHX_DHgAHDUN_a-BL8-9" edge="1">
                    <mxGeometry relative="1" as="geometry">
                        <mxPoint x="470" y="260" as="sourcePoint"/>
                        <mxPoint x="630" y="260" as="targetPoint"/>
                    </mxGeometry>
                </mxCell>
                <mxCell id="4gdHX_DHgAHDUN_a-BL8-18" value="" style="endArrow=none;html=1;rounded=0;exitX=1;exitY=0.5;exitDx=0;exitDy=0;entryX=0;entryY=1;entryDx=0;entryDy=0;" parent="1" source="4gdHX_DHgAHDUN_a-BL8-1" target="4gdHX_DHgAHDUN_a-BL8-10" edge="1">
                    <mxGeometry relative="1" as="geometry">
                        <mxPoint x="420" y="250" as="sourcePoint"/>
                        <mxPoint x="580" y="250" as="targetPoint"/>
                    </mxGeometry>
                </mxCell>
                <mxCell id="4gdHX_DHgAHDUN_a-BL8-19" value="" style="endArrow=none;html=1;rounded=0;exitX=1;exitY=0.75;exitDx=0;exitDy=0;entryX=0;entryY=0.5;entryDx=0;entryDy=0;" parent="1" source="4gdHX_DHgAHDUN_a-BL8-1" target="4gdHX_DHgAHDUN_a-BL8-6" edge="1">
                    <mxGeometry relative="1" as="geometry">
                        <mxPoint x="470" y="360" as="sourcePoint"/>
                        <mxPoint x="630" y="360" as="targetPoint"/>
                    </mxGeometry>
                </mxCell>
            </root>
        </mxGraphModel>
    </diagram>
    <diagram id="klwVh1a8oWEii7XGz_fU" name="Airport3">
        <mxGraphModel dx="350" dy="505" grid="0" gridSize="10" guides="1" tooltips="1" connect="1" arrows="1" fold="1" page="1" pageScale="1" pageWidth="850" pageHeight="1100" math="0" shadow="0">
            <root>
                <mxCell id="0"/>
                <mxCell id="1" parent="0"/>
                <mxCell id="RY9bcv1od4gSNWWFB4-D-11" value="Airport3&lt;br&gt;Departures" style="whiteSpace=wrap;html=1;align=center;" parent="1" vertex="1">
                    <mxGeometry x="160" y="240" width="100" height="40" as="geometry"/>
                </mxCell>
                <mxCell id="RY9bcv1od4gSNWWFB4-D-12" value="Airline" style="ellipse;whiteSpace=wrap;html=1;align=center;fontStyle=4" parent="1" vertex="1">
                    <mxGeometry x="20" y="260" width="80" height="40" as="geometry"/>
                </mxCell>
                <mxCell id="RY9bcv1od4gSNWWFB4-D-13" value="FlightNumber" style="ellipse;whiteSpace=wrap;html=1;align=center;fontStyle=4" parent="1" vertex="1">
                    <mxGeometry x="30" y="215" width="80" height="40" as="geometry"/>
                </mxCell>
                <mxCell id="RY9bcv1od4gSNWWFB4-D-14" value="Scheduled" style="ellipse;whiteSpace=wrap;html=1;align=center;fontStyle=4" parent="1" vertex="1">
                    <mxGeometry x="60" y="170" width="80" height="40" as="geometry"/>
                </mxCell>
                <mxCell id="RY9bcv1od4gSNWWFB4-D-15" value="Actual" style="ellipse;whiteSpace=wrap;html=1;align=center;" parent="1" vertex="1">
                    <mxGeometry x="100" y="130" width="80" height="40" as="geometry"/>
                </mxCell>
                <mxCell id="RY9bcv1od4gSNWWFB4-D-16" value="GateTime" style="ellipse;whiteSpace=wrap;html=1;align=center;" parent="1" vertex="1">
                    <mxGeometry x="170" y="110" width="80" height="40" as="geometry"/>
                </mxCell>
                <mxCell id="RY9bcv1od4gSNWWFB4-D-17" value="TakeoffTime" style="ellipse;whiteSpace=wrap;html=1;align=center;" parent="1" vertex="1">
                    <mxGeometry x="240" y="130" width="80" height="40" as="geometry"/>
                </mxCell>
                <mxCell id="RY9bcv1od4gSNWWFB4-D-18" value="Terminal" style="ellipse;whiteSpace=wrap;html=1;align=center;" parent="1" vertex="1">
                    <mxGeometry x="290" y="170" width="80" height="40" as="geometry"/>
                </mxCell>
                <mxCell id="RY9bcv1od4gSNWWFB4-D-19" value="Gate" style="ellipse;whiteSpace=wrap;html=1;align=center;" parent="1" vertex="1">
                    <mxGeometry x="320" y="215" width="80" height="40" as="geometry"/>
                </mxCell>
                <mxCell id="RY9bcv1od4gSNWWFB4-D-20" value="Runway" style="ellipse;whiteSpace=wrap;html=1;align=center;" parent="1" vertex="1">
                    <mxGeometry x="340" y="260" width="80" height="40" as="geometry"/>
                </mxCell>
                <mxCell id="9ncIPk-VStxtEnuhOLkS-1" value="" style="endArrow=none;html=1;rounded=0;exitX=1;exitY=0.5;exitDx=0;exitDy=0;entryX=0;entryY=0.75;entryDx=0;entryDy=0;" parent="1" source="RY9bcv1od4gSNWWFB4-D-12" target="RY9bcv1od4gSNWWFB4-D-11" edge="1">
                    <mxGeometry relative="1" as="geometry">
                        <mxPoint x="120" y="310" as="sourcePoint"/>
                        <mxPoint x="280" y="310" as="targetPoint"/>
                    </mxGeometry>
                </mxCell>
                <mxCell id="9ncIPk-VStxtEnuhOLkS-2" value="" style="endArrow=none;html=1;rounded=0;exitX=0.5;exitY=1;exitDx=0;exitDy=0;entryX=0.5;entryY=0;entryDx=0;entryDy=0;" parent="1" source="RY9bcv1od4gSNWWFB4-D-16" target="RY9bcv1od4gSNWWFB4-D-11" edge="1">
                    <mxGeometry relative="1" as="geometry">
                        <mxPoint x="190" y="200" as="sourcePoint"/>
                        <mxPoint x="350" y="200" as="targetPoint"/>
                    </mxGeometry>
                </mxCell>
                <mxCell id="9ncIPk-VStxtEnuhOLkS-3" value="" style="endArrow=none;html=1;rounded=0;exitX=1;exitY=1;exitDx=0;exitDy=0;entryX=0;entryY=0.5;entryDx=0;entryDy=0;" parent="1" source="RY9bcv1od4gSNWWFB4-D-13" target="RY9bcv1od4gSNWWFB4-D-11" edge="1">
                    <mxGeometry relative="1" as="geometry">
                        <mxPoint x="170" y="390" as="sourcePoint"/>
                        <mxPoint x="330" y="390" as="targetPoint"/>
                    </mxGeometry>
                </mxCell>
                <mxCell id="9ncIPk-VStxtEnuhOLkS-4" value="" style="endArrow=none;html=1;rounded=0;exitX=1;exitY=1;exitDx=0;exitDy=0;entryX=0;entryY=0;entryDx=0;entryDy=0;" parent="1" source="RY9bcv1od4gSNWWFB4-D-14" target="RY9bcv1od4gSNWWFB4-D-11" edge="1">
                    <mxGeometry relative="1" as="geometry">
                        <mxPoint x="170" y="350" as="sourcePoint"/>
                        <mxPoint x="330" y="350" as="targetPoint"/>
                    </mxGeometry>
                </mxCell>
                <mxCell id="9ncIPk-VStxtEnuhOLkS-5" value="" style="endArrow=none;html=1;rounded=0;exitX=1;exitY=1;exitDx=0;exitDy=0;entryX=0.25;entryY=0;entryDx=0;entryDy=0;" parent="1" source="RY9bcv1od4gSNWWFB4-D-15" target="RY9bcv1od4gSNWWFB4-D-11" edge="1">
                    <mxGeometry relative="1" as="geometry">
                        <mxPoint x="190" y="360" as="sourcePoint"/>
                        <mxPoint x="350" y="360" as="targetPoint"/>
                    </mxGeometry>
                </mxCell>
                <mxCell id="9ncIPk-VStxtEnuhOLkS-6" value="" style="endArrow=none;html=1;rounded=0;exitX=0.75;exitY=0;exitDx=0;exitDy=0;entryX=0;entryY=1;entryDx=0;entryDy=0;" parent="1" source="RY9bcv1od4gSNWWFB4-D-11" target="RY9bcv1od4gSNWWFB4-D-17" edge="1">
                    <mxGeometry relative="1" as="geometry">
                        <mxPoint x="220" y="210" as="sourcePoint"/>
                        <mxPoint x="380" y="210" as="targetPoint"/>
                    </mxGeometry>
                </mxCell>
                <mxCell id="9ncIPk-VStxtEnuhOLkS-7" value="" style="endArrow=none;html=1;rounded=0;exitX=1;exitY=0;exitDx=0;exitDy=0;entryX=0;entryY=1;entryDx=0;entryDy=0;" parent="1" source="RY9bcv1od4gSNWWFB4-D-11" target="RY9bcv1od4gSNWWFB4-D-18" edge="1">
                    <mxGeometry relative="1" as="geometry">
                        <mxPoint x="270" y="310" as="sourcePoint"/>
                        <mxPoint x="430" y="310" as="targetPoint"/>
                    </mxGeometry>
                </mxCell>
                <mxCell id="9ncIPk-VStxtEnuhOLkS-8" value="" style="endArrow=none;html=1;rounded=0;exitX=1;exitY=0.5;exitDx=0;exitDy=0;entryX=0;entryY=1;entryDx=0;entryDy=0;" parent="1" source="RY9bcv1od4gSNWWFB4-D-11" target="RY9bcv1od4gSNWWFB4-D-19" edge="1">
                    <mxGeometry relative="1" as="geometry">
                        <mxPoint x="300" y="310" as="sourcePoint"/>
                        <mxPoint x="460" y="310" as="targetPoint"/>
                    </mxGeometry>
                </mxCell>
                <mxCell id="9ncIPk-VStxtEnuhOLkS-9" value="" style="endArrow=none;html=1;rounded=0;exitX=1;exitY=0.75;exitDx=0;exitDy=0;entryX=0;entryY=0.5;entryDx=0;entryDy=0;" parent="1" source="RY9bcv1od4gSNWWFB4-D-11" target="RY9bcv1od4gSNWWFB4-D-20" edge="1">
                    <mxGeometry relative="1" as="geometry">
                        <mxPoint x="300" y="360" as="sourcePoint"/>
                        <mxPoint x="460" y="360" as="targetPoint"/>
                    </mxGeometry>
                </mxCell>
                <mxCell id="9ncIPk-VStxtEnuhOLkS-10" value="Airport3&lt;br&gt;Arrivals" style="whiteSpace=wrap;html=1;align=center;" parent="1" vertex="1">
                    <mxGeometry x="576" y="240" width="100" height="40" as="geometry"/>
                </mxCell>
                <mxCell id="9ncIPk-VStxtEnuhOLkS-11" value="Airline" style="ellipse;whiteSpace=wrap;html=1;align=center;fontStyle=4" parent="1" vertex="1">
                    <mxGeometry x="436" y="260" width="80" height="40" as="geometry"/>
                </mxCell>
                <mxCell id="9ncIPk-VStxtEnuhOLkS-12" value="FlightNumber" style="ellipse;whiteSpace=wrap;html=1;align=center;fontStyle=4" parent="1" vertex="1">
                    <mxGeometry x="446" y="215" width="80" height="40" as="geometry"/>
                </mxCell>
                <mxCell id="9ncIPk-VStxtEnuhOLkS-13" value="Scheduled" style="ellipse;whiteSpace=wrap;html=1;align=center;fontStyle=4" parent="1" vertex="1">
                    <mxGeometry x="476" y="170" width="80" height="40" as="geometry"/>
                </mxCell>
                <mxCell id="9ncIPk-VStxtEnuhOLkS-14" value="Actual" style="ellipse;whiteSpace=wrap;html=1;align=center;" parent="1" vertex="1">
                    <mxGeometry x="516" y="130" width="80" height="40" as="geometry"/>
                </mxCell>
                <mxCell id="9ncIPk-VStxtEnuhOLkS-15" value="GateTime" style="ellipse;whiteSpace=wrap;html=1;align=center;" parent="1" vertex="1">
                    <mxGeometry x="586" y="110" width="80" height="40" as="geometry"/>
                </mxCell>
                <mxCell id="9ncIPk-VStxtEnuhOLkS-16" value="LandingTime" style="ellipse;whiteSpace=wrap;html=1;align=center;" parent="1" vertex="1">
                    <mxGeometry x="656" y="130" width="80" height="40" as="geometry"/>
                </mxCell>
                <mxCell id="9ncIPk-VStxtEnuhOLkS-17" value="Terminal" style="ellipse;whiteSpace=wrap;html=1;align=center;" parent="1" vertex="1">
                    <mxGeometry x="706" y="170" width="80" height="40" as="geometry"/>
                </mxCell>
                <mxCell id="9ncIPk-VStxtEnuhOLkS-18" value="Gate" style="ellipse;whiteSpace=wrap;html=1;align=center;" parent="1" vertex="1">
                    <mxGeometry x="736" y="215" width="80" height="40" as="geometry"/>
                </mxCell>
                <mxCell id="9ncIPk-VStxtEnuhOLkS-19" value="Runway" style="ellipse;whiteSpace=wrap;html=1;align=center;" parent="1" vertex="1">
                    <mxGeometry x="756" y="260" width="80" height="40" as="geometry"/>
                </mxCell>
                <mxCell id="9ncIPk-VStxtEnuhOLkS-20" value="" style="endArrow=none;html=1;rounded=0;exitX=1;exitY=0.5;exitDx=0;exitDy=0;entryX=0;entryY=0.75;entryDx=0;entryDy=0;" parent="1" target="9ncIPk-VStxtEnuhOLkS-10" edge="1">
                    <mxGeometry relative="1" as="geometry">
                        <mxPoint x="516" y="280" as="sourcePoint"/>
                        <mxPoint x="696" y="310" as="targetPoint"/>
                    </mxGeometry>
                </mxCell>
                <mxCell id="9ncIPk-VStxtEnuhOLkS-21" value="" style="endArrow=none;html=1;rounded=0;exitX=0.5;exitY=1;exitDx=0;exitDy=0;entryX=0.5;entryY=0;entryDx=0;entryDy=0;" parent="1" source="9ncIPk-VStxtEnuhOLkS-15" target="9ncIPk-VStxtEnuhOLkS-10" edge="1">
                    <mxGeometry relative="1" as="geometry">
                        <mxPoint x="606" y="200" as="sourcePoint"/>
                        <mxPoint x="766" y="200" as="targetPoint"/>
                    </mxGeometry>
                </mxCell>
                <mxCell id="9ncIPk-VStxtEnuhOLkS-22" value="" style="endArrow=none;html=1;rounded=0;exitX=1;exitY=1;exitDx=0;exitDy=0;entryX=0;entryY=0.5;entryDx=0;entryDy=0;" parent="1" source="9ncIPk-VStxtEnuhOLkS-12" target="9ncIPk-VStxtEnuhOLkS-10" edge="1">
                    <mxGeometry relative="1" as="geometry">
                        <mxPoint x="586" y="390" as="sourcePoint"/>
                        <mxPoint x="746" y="390" as="targetPoint"/>
                    </mxGeometry>
                </mxCell>
                <mxCell id="9ncIPk-VStxtEnuhOLkS-23" value="" style="endArrow=none;html=1;rounded=0;exitX=1;exitY=1;exitDx=0;exitDy=0;entryX=0;entryY=0;entryDx=0;entryDy=0;" parent="1" source="9ncIPk-VStxtEnuhOLkS-13" target="9ncIPk-VStxtEnuhOLkS-10" edge="1">
                    <mxGeometry relative="1" as="geometry">
                        <mxPoint x="586" y="350" as="sourcePoint"/>
                        <mxPoint x="746" y="350" as="targetPoint"/>
                    </mxGeometry>
                </mxCell>
                <mxCell id="9ncIPk-VStxtEnuhOLkS-24" value="" style="endArrow=none;html=1;rounded=0;exitX=1;exitY=1;exitDx=0;exitDy=0;entryX=0.25;entryY=0;entryDx=0;entryDy=0;" parent="1" source="9ncIPk-VStxtEnuhOLkS-14" target="9ncIPk-VStxtEnuhOLkS-10" edge="1">
                    <mxGeometry relative="1" as="geometry">
                        <mxPoint x="606" y="360" as="sourcePoint"/>
                        <mxPoint x="766" y="360" as="targetPoint"/>
                    </mxGeometry>
                </mxCell>
                <mxCell id="9ncIPk-VStxtEnuhOLkS-25" value="" style="endArrow=none;html=1;rounded=0;exitX=0.75;exitY=0;exitDx=0;exitDy=0;entryX=0;entryY=1;entryDx=0;entryDy=0;" parent="1" source="9ncIPk-VStxtEnuhOLkS-10" target="9ncIPk-VStxtEnuhOLkS-16" edge="1">
                    <mxGeometry relative="1" as="geometry">
                        <mxPoint x="636" y="210" as="sourcePoint"/>
                        <mxPoint x="796" y="210" as="targetPoint"/>
                    </mxGeometry>
                </mxCell>
                <mxCell id="9ncIPk-VStxtEnuhOLkS-26" value="" style="endArrow=none;html=1;rounded=0;exitX=1;exitY=0;exitDx=0;exitDy=0;entryX=0;entryY=1;entryDx=0;entryDy=0;" parent="1" source="9ncIPk-VStxtEnuhOLkS-10" target="9ncIPk-VStxtEnuhOLkS-17" edge="1">
                    <mxGeometry relative="1" as="geometry">
                        <mxPoint x="686" y="310" as="sourcePoint"/>
                        <mxPoint x="846" y="310" as="targetPoint"/>
                    </mxGeometry>
                </mxCell>
                <mxCell id="9ncIPk-VStxtEnuhOLkS-27" value="" style="endArrow=none;html=1;rounded=0;exitX=1;exitY=0.5;exitDx=0;exitDy=0;entryX=0;entryY=1;entryDx=0;entryDy=0;" parent="1" source="9ncIPk-VStxtEnuhOLkS-10" target="9ncIPk-VStxtEnuhOLkS-18" edge="1">
                    <mxGeometry relative="1" as="geometry">
                        <mxPoint x="716" y="310" as="sourcePoint"/>
                        <mxPoint x="876" y="310" as="targetPoint"/>
                    </mxGeometry>
                </mxCell>
                <mxCell id="9ncIPk-VStxtEnuhOLkS-28" value="" style="endArrow=none;html=1;rounded=0;exitX=1;exitY=0.75;exitDx=0;exitDy=0;entryX=0;entryY=0.5;entryDx=0;entryDy=0;" parent="1" source="9ncIPk-VStxtEnuhOLkS-10" target="9ncIPk-VStxtEnuhOLkS-19" edge="1">
                    <mxGeometry relative="1" as="geometry">
                        <mxPoint x="716" y="360" as="sourcePoint"/>
                        <mxPoint x="876" y="360" as="targetPoint"/>
                    </mxGeometry>
                </mxCell>
            </root>
        </mxGraphModel>
    </diagram>
    <diagram id="HU8Hq-3W39FJtiHKII6Z" name="Airfare4">
        <mxGraphModel dx="350" dy="505" grid="0" gridSize="10" guides="1" tooltips="1" connect="1" arrows="1" fold="1" page="1" pageScale="1" pageWidth="850" pageHeight="1100" math="0" shadow="0">
            <root>
                <mxCell id="0"/>
                <mxCell id="1" parent="0"/>
                <mxCell id="u3kzzjIHOqXTd02n33qp-1" value="Airfare4&lt;br&gt;Flight" style="whiteSpace=wrap;html=1;align=center;" parent="1" vertex="1">
                    <mxGeometry x="160" y="320" width="100" height="40" as="geometry"/>
                </mxCell>
                <mxCell id="u3kzzjIHOqXTd02n33qp-5" value="Fare" style="ellipse;whiteSpace=wrap;html=1;align=center;fontStyle=4" parent="1" vertex="1">
                    <mxGeometry x="630" y="250" width="80" height="40" as="geometry"/>
                </mxCell>
                <mxCell id="u3kzzjIHOqXTd02n33qp-6" value="FareClass" style="ellipse;whiteSpace=wrap;html=1;align=center;fontStyle=4" parent="1" vertex="1">
                    <mxGeometry x="510" y="250" width="80" height="40" as="geometry"/>
                </mxCell>
                <mxCell id="u3kzzjIHOqXTd02n33qp-7" value="FlightId" style="ellipse;whiteSpace=wrap;html=1;align=center;fontStyle=4" parent="1" vertex="1">
                    <mxGeometry x="20" y="320" width="80" height="40" as="geometry"/>
                </mxCell>
                <mxCell id="u3kzzjIHOqXTd02n33qp-8" value="Flight&lt;br&gt;Number" style="ellipse;whiteSpace=wrap;html=1;align=center;" parent="1" vertex="1">
                    <mxGeometry x="40" y="274" width="80" height="40" as="geometry"/>
                </mxCell>
                <mxCell id="u3kzzjIHOqXTd02n33qp-9" value="Departure&lt;br&gt;Airport" style="ellipse;whiteSpace=wrap;html=1;align=center;" parent="1" vertex="1">
                    <mxGeometry x="80" y="230" width="80" height="40" as="geometry"/>
                </mxCell>
                <mxCell id="u3kzzjIHOqXTd02n33qp-10" value="Departure&lt;br&gt;Date" style="ellipse;whiteSpace=wrap;html=1;align=center;" parent="1" vertex="1">
                    <mxGeometry x="170" y="210" width="80" height="40" as="geometry"/>
                </mxCell>
                <mxCell id="u3kzzjIHOqXTd02n33qp-11" value="Departure&lt;br&gt;Time" style="ellipse;whiteSpace=wrap;html=1;align=center;" parent="1" vertex="1">
                    <mxGeometry x="250" y="230" width="80" height="40" as="geometry"/>
                </mxCell>
                <mxCell id="u3kzzjIHOqXTd02n33qp-12" value="Arrival&lt;br&gt;Airport" style="ellipse;whiteSpace=wrap;html=1;align=center;" parent="1" vertex="1">
                    <mxGeometry x="300" y="270" width="80" height="40" as="geometry"/>
                </mxCell>
                <mxCell id="u3kzzjIHOqXTd02n33qp-13" value="Arrival&lt;br&gt;Time" style="ellipse;whiteSpace=wrap;html=1;align=center;" parent="1" vertex="1">
                    <mxGeometry x="310" y="320" width="80" height="40" as="geometry"/>
                </mxCell>
                <mxCell id="YTsoUwNNimGh94GW3g7h-1" value="" style="endArrow=none;html=1;rounded=0;exitX=1;exitY=0.5;exitDx=0;exitDy=0;entryX=0;entryY=0.5;entryDx=0;entryDy=0;" parent="1" source="u3kzzjIHOqXTd02n33qp-7" target="u3kzzjIHOqXTd02n33qp-1" edge="1">
                    <mxGeometry relative="1" as="geometry">
                        <mxPoint x="60" y="410" as="sourcePoint"/>
                        <mxPoint x="220" y="410" as="targetPoint"/>
                    </mxGeometry>
                </mxCell>
                <mxCell id="YTsoUwNNimGh94GW3g7h-2" value="" style="endArrow=none;html=1;rounded=0;exitX=1;exitY=1;exitDx=0;exitDy=0;entryX=0;entryY=0.25;entryDx=0;entryDy=0;" parent="1" source="u3kzzjIHOqXTd02n33qp-8" target="u3kzzjIHOqXTd02n33qp-1" edge="1">
                    <mxGeometry relative="1" as="geometry">
                        <mxPoint x="130" y="350" as="sourcePoint"/>
                        <mxPoint x="170" y="350" as="targetPoint"/>
                    </mxGeometry>
                </mxCell>
                <mxCell id="YTsoUwNNimGh94GW3g7h-3" value="" style="endArrow=none;html=1;rounded=0;exitX=1;exitY=1;exitDx=0;exitDy=0;entryX=0.25;entryY=0;entryDx=0;entryDy=0;" parent="1" source="u3kzzjIHOqXTd02n33qp-9" target="u3kzzjIHOqXTd02n33qp-1" edge="1">
                    <mxGeometry relative="1" as="geometry">
                        <mxPoint x="133.2842712474619" y="319.14213562373095" as="sourcePoint"/>
                        <mxPoint x="170" y="340" as="targetPoint"/>
                    </mxGeometry>
                </mxCell>
                <mxCell id="YTsoUwNNimGh94GW3g7h-4" value="" style="endArrow=none;html=1;rounded=0;exitX=0.5;exitY=1;exitDx=0;exitDy=0;entryX=0.5;entryY=0;entryDx=0;entryDy=0;" parent="1" source="u3kzzjIHOqXTd02n33qp-10" target="u3kzzjIHOqXTd02n33qp-1" edge="1">
                    <mxGeometry relative="1" as="geometry">
                        <mxPoint x="158.2842712474619" y="274.14213562373095" as="sourcePoint"/>
                        <mxPoint x="195" y="330" as="targetPoint"/>
                    </mxGeometry>
                </mxCell>
                <mxCell id="YTsoUwNNimGh94GW3g7h-5" value="" style="endArrow=none;html=1;rounded=0;exitX=0;exitY=1;exitDx=0;exitDy=0;entryX=0.75;entryY=0;entryDx=0;entryDy=0;" parent="1" source="u3kzzjIHOqXTd02n33qp-11" target="u3kzzjIHOqXTd02n33qp-1" edge="1">
                    <mxGeometry relative="1" as="geometry">
                        <mxPoint x="210" y="260" as="sourcePoint"/>
                        <mxPoint x="220" y="330" as="targetPoint"/>
                    </mxGeometry>
                </mxCell>
                <mxCell id="YTsoUwNNimGh94GW3g7h-6" value="" style="endArrow=none;html=1;rounded=0;exitX=0;exitY=1;exitDx=0;exitDy=0;entryX=1;entryY=0.25;entryDx=0;entryDy=0;" parent="1" source="u3kzzjIHOqXTd02n33qp-12" target="u3kzzjIHOqXTd02n33qp-1" edge="1">
                    <mxGeometry relative="1" as="geometry">
                        <mxPoint x="261.71572875253787" y="274.14213562373106" as="sourcePoint"/>
                        <mxPoint x="245" y="330" as="targetPoint"/>
                    </mxGeometry>
                </mxCell>
                <mxCell id="YTsoUwNNimGh94GW3g7h-7" value="" style="endArrow=none;html=1;rounded=0;exitX=0;exitY=0.5;exitDx=0;exitDy=0;entryX=1;entryY=0.5;entryDx=0;entryDy=0;" parent="1" source="u3kzzjIHOqXTd02n33qp-13" target="u3kzzjIHOqXTd02n33qp-1" edge="1">
                    <mxGeometry relative="1" as="geometry">
                        <mxPoint x="311.71572875253787" y="314.14213562373106" as="sourcePoint"/>
                        <mxPoint x="270" y="340" as="targetPoint"/>
                    </mxGeometry>
                </mxCell>
                <mxCell id="YTsoUwNNimGh94GW3g7h-9" value="" style="endArrow=none;html=1;rounded=0;exitX=0.5;exitY=1;exitDx=0;exitDy=0;entryX=0.25;entryY=0;entryDx=0;entryDy=0;" parent="1" source="u3kzzjIHOqXTd02n33qp-6" target="YTsoUwNNimGh94GW3g7h-21" edge="1">
                    <mxGeometry relative="1" as="geometry">
                        <mxPoint x="510" y="300" as="sourcePoint"/>
                        <mxPoint x="600" y="310" as="targetPoint"/>
                    </mxGeometry>
                </mxCell>
                <mxCell id="YTsoUwNNimGh94GW3g7h-11" value="" style="endArrow=none;html=1;rounded=0;entryX=0.75;entryY=0;entryDx=0;entryDy=0;exitX=0.5;exitY=1;exitDx=0;exitDy=0;" parent="1" source="u3kzzjIHOqXTd02n33qp-5" target="YTsoUwNNimGh94GW3g7h-21" edge="1">
                    <mxGeometry relative="1" as="geometry">
                        <mxPoint x="720" y="290" as="sourcePoint"/>
                        <mxPoint x="660" y="320" as="targetPoint"/>
                    </mxGeometry>
                </mxCell>
                <mxCell id="YTsoUwNNimGh94GW3g7h-12" value="Relationship" style="shape=rhombus;double=1;perimeter=rhombusPerimeter;whiteSpace=wrap;html=1;align=center;" parent="1" vertex="1">
                    <mxGeometry x="360" y="390" width="120" height="60" as="geometry"/>
                </mxCell>
                <mxCell id="YTsoUwNNimGh94GW3g7h-13" value="" style="endArrow=none;html=1;rounded=0;exitX=0.5;exitY=1;exitDx=0;exitDy=0;entryX=0;entryY=0.5;entryDx=0;entryDy=0;" parent="1" source="u3kzzjIHOqXTd02n33qp-1" target="YTsoUwNNimGh94GW3g7h-12" edge="1">
                    <mxGeometry relative="1" as="geometry">
                        <mxPoint x="340" y="340" as="sourcePoint"/>
                        <mxPoint x="500" y="340" as="targetPoint"/>
                    </mxGeometry>
                </mxCell>
                <mxCell id="YTsoUwNNimGh94GW3g7h-14" value="1" style="resizable=0;html=1;align=right;verticalAlign=bottom;" parent="YTsoUwNNimGh94GW3g7h-13" connectable="0" vertex="1">
                    <mxGeometry x="1" relative="1" as="geometry">
                        <mxPoint x="-70" y="-10" as="offset"/>
                    </mxGeometry>
                </mxCell>
                <mxCell id="YTsoUwNNimGh94GW3g7h-17" value="" style="endArrow=none;html=1;rounded=0;exitX=1;exitY=0.5;exitDx=0;exitDy=0;entryX=0.5;entryY=1;entryDx=0;entryDy=0;" parent="1" source="YTsoUwNNimGh94GW3g7h-12" edge="1">
                    <mxGeometry relative="1" as="geometry">
                        <mxPoint x="550" y="430" as="sourcePoint"/>
                        <mxPoint x="610" y="360" as="targetPoint"/>
                    </mxGeometry>
                </mxCell>
                <mxCell id="YTsoUwNNimGh94GW3g7h-18" value="N" style="resizable=0;html=1;align=right;verticalAlign=bottom;" parent="YTsoUwNNimGh94GW3g7h-17" connectable="0" vertex="1">
                    <mxGeometry x="1" relative="1" as="geometry">
                        <mxPoint x="-50" y="50" as="offset"/>
                    </mxGeometry>
                </mxCell>
                <mxCell id="YTsoUwNNimGh94GW3g7h-21" value="Airfare4&lt;br&gt;Fares" style="shape=ext;margin=3;double=1;whiteSpace=wrap;html=1;align=center;" parent="1" vertex="1">
                    <mxGeometry x="560" y="320" width="100" height="40" as="geometry"/>
                </mxCell>
            </root>
        </mxGraphModel>
    </diagram>
    <diagram id="_4JdDyoMcqX54JgxBQ5o" name="Airinfo5">
        <mxGraphModel dx="350" dy="505" grid="0" gridSize="10" guides="1" tooltips="1" connect="1" arrows="1" fold="1" page="1" pageScale="1" pageWidth="850" pageHeight="1100" math="0" shadow="0">
            <root>
                <mxCell id="0"/>
                <mxCell id="1" parent="0"/>
                <mxCell id="4Mb3K3YY5-hDsGISDjsT-1" value="Airinfo5&lt;br&gt;AirportCodes" style="whiteSpace=wrap;html=1;align=center;" parent="1" vertex="1">
                    <mxGeometry x="120" y="220" width="100" height="40" as="geometry"/>
                </mxCell>
                <mxCell id="Vvxpl73Lr1kn9Exk-1iL-1" value="Airinfo5&lt;br&gt;AirlineCodes" style="whiteSpace=wrap;html=1;align=center;" parent="1" vertex="1">
                    <mxGeometry x="390" y="220" width="100" height="40" as="geometry"/>
                </mxCell>
                <mxCell id="pWKRnx_HgH1dddLxyd5a-1" value="Airport&lt;br&gt;Code" style="ellipse;whiteSpace=wrap;html=1;align=center;fontStyle=4" parent="1" vertex="1">
                    <mxGeometry x="80" y="160" width="80" height="40" as="geometry"/>
                </mxCell>
                <mxCell id="pWKRnx_HgH1dddLxyd5a-2" value="Airport&lt;br&gt;Name" style="ellipse;whiteSpace=wrap;html=1;align=center;fontStyle=0" parent="1" vertex="1">
                    <mxGeometry x="180" y="160" width="80" height="40" as="geometry"/>
                </mxCell>
                <mxCell id="pWKRnx_HgH1dddLxyd5a-3" value="Airline&lt;br&gt;Code" style="ellipse;whiteSpace=wrap;html=1;align=center;fontStyle=4" parent="1" vertex="1">
                    <mxGeometry x="330" y="160" width="80" height="40" as="geometry"/>
                </mxCell>
                <mxCell id="pWKRnx_HgH1dddLxyd5a-5" value="Airline &lt;br&gt;Name" style="ellipse;whiteSpace=wrap;html=1;align=center;fontStyle=0" parent="1" vertex="1">
                    <mxGeometry x="460" y="160" width="80" height="40" as="geometry"/>
                </mxCell>
                <mxCell id="pWKRnx_HgH1dddLxyd5a-6" value="" style="endArrow=none;html=1;rounded=0;exitX=0.5;exitY=1;exitDx=0;exitDy=0;entryX=0.25;entryY=0;entryDx=0;entryDy=0;" parent="1" source="pWKRnx_HgH1dddLxyd5a-3" target="Vvxpl73Lr1kn9Exk-1iL-1" edge="1">
                    <mxGeometry relative="1" as="geometry">
                        <mxPoint x="390" y="390" as="sourcePoint"/>
                        <mxPoint x="550" y="390" as="targetPoint"/>
                    </mxGeometry>
                </mxCell>
                <mxCell id="pWKRnx_HgH1dddLxyd5a-7" value="" style="endArrow=none;html=1;rounded=0;exitX=0.5;exitY=1;exitDx=0;exitDy=0;entryX=0.75;entryY=0;entryDx=0;entryDy=0;" parent="1" source="pWKRnx_HgH1dddLxyd5a-5" target="Vvxpl73Lr1kn9Exk-1iL-1" edge="1">
                    <mxGeometry relative="1" as="geometry">
                        <mxPoint x="380" y="210" as="sourcePoint"/>
                        <mxPoint x="425" y="230" as="targetPoint"/>
                    </mxGeometry>
                </mxCell>
                <mxCell id="pWKRnx_HgH1dddLxyd5a-8" value="" style="endArrow=none;html=1;rounded=0;exitX=0.5;exitY=1;exitDx=0;exitDy=0;entryX=0.25;entryY=0;entryDx=0;entryDy=0;" parent="1" source="pWKRnx_HgH1dddLxyd5a-1" target="4Mb3K3YY5-hDsGISDjsT-1" edge="1">
                    <mxGeometry relative="1" as="geometry">
                        <mxPoint x="380" y="200" as="sourcePoint"/>
                        <mxPoint x="425" y="220" as="targetPoint"/>
                    </mxGeometry>
                </mxCell>
                <mxCell id="pWKRnx_HgH1dddLxyd5a-9" value="" style="endArrow=none;html=1;rounded=0;exitX=0.425;exitY=1;exitDx=0;exitDy=0;entryX=0.7;entryY=0;entryDx=0;entryDy=0;exitPerimeter=0;entryPerimeter=0;" parent="1" source="pWKRnx_HgH1dddLxyd5a-2" target="4Mb3K3YY5-hDsGISDjsT-1" edge="1">
                    <mxGeometry relative="1" as="geometry">
                        <mxPoint x="130" y="210" as="sourcePoint"/>
                        <mxPoint x="155" y="230" as="targetPoint"/>
                    </mxGeometry>
                </mxCell>
            </root>
        </mxGraphModel>
    </diagram>
</mxfile>